<svg version="1.1" id="Layer_1" xmlns="http://www.w3.org/2000/svg" xmlns:xlink="http://www.w3.org/1999/xlink" x="0px" y="0px"
	 width="100%" viewBox="0 0 225 225" enable-background="new 0 0 225 225" xml:space="preserve">
<path fill="#FDFDFD" opacity="1.000000" stroke="none" 
	d="
M126.000000,226.000000 
	C85.166672,226.000000 44.833214,225.958939 4.500267,226.083817 
	C1.516876,226.093048 0.913466,225.482285 0.917787,222.499893 
	C1.023051,149.833374 1.023047,77.166656 0.917792,4.500140 
	C0.913472,1.517827 1.517668,0.913462 4.500098,0.917783 
	C77.166611,1.023050 149.833344,1.023045 222.499847,0.917795 
	C225.482132,0.913475 226.086548,1.517623 226.082230,4.500085 
	C225.976959,77.166595 225.976959,149.833328 226.082199,222.499832 
	C226.086517,225.482071 225.483948,226.097382 222.499680,226.084686 
	C190.500244,225.948639 158.500015,226.000000 126.000000,226.000000 
z"/>
<path fill="#010101" opacity="1.000000" stroke="none" 
	d="
M149.894379,218.010101 
	C87.244942,240.589172 16.492249,199.806320 4.934624,134.751312 
	C-5.806555,74.291870 30.236053,19.307163 89.724861,5.399773 
	C149.236526,-8.512956 211.002136,32.268375 222.160767,92.085388 
	C232.195419,145.877136 202.531387,199.363724 149.894379,218.010101 
z"/>
<path fill="#F1F1F1" opacity="1.000000" stroke="none" 
	d="
M55.036930,132.035751 
	C43.268894,133.510254 35.550652,127.931213 33.556114,116.826111 
	C31.737680,106.701485 37.652508,97.823631 47.673958,95.635971 
	C56.016747,93.814743 64.704834,98.581581 67.643570,106.592560 
	C71.052757,115.886009 67.329536,126.544647 59.165058,130.696060 
	C58.000061,131.288437 56.679588,131.575043 55.036930,132.035751 
z"/>
<path fill="#F1F1F1" opacity="1.000000" stroke="none" 
	d="
M93.236206,98.185104 
	C94.138016,93.469528 97.473358,95.895798 99.642067,95.773933 
	C101.923813,95.645706 100.921745,98.022705 100.978065,99.303261 
	C101.121994,102.575478 101.026047,105.858238 101.026047,109.922615 
	C103.536987,107.533600 105.990479,106.737556 108.667282,106.694313 
	C113.530441,106.615761 116.608559,108.944099 117.283997,113.843437 
	C117.780533,117.445045 117.545418,121.145470 117.677429,124.800377 
	C117.733421,126.350502 117.090408,128.293182 119.719864,128.513123 
	C121.098717,128.628433 121.046539,129.769028 120.985390,130.781631 
	C120.893631,132.301132 119.692818,131.890076 118.784492,132.030762 
	C114.651520,132.670853 112.496643,131.466324 113.009254,126.745209 
	C113.384598,123.288284 113.075920,119.756798 113.067192,116.258553 
	C113.058128,112.625938 111.344528,110.649170 107.601814,110.689819 
	C103.977867,110.729187 101.428307,112.334229 101.091087,116.088234 
	C100.794182,119.393349 101.040619,122.746185 101.020187,126.077789 
	C101.012566,127.321602 101.060516,128.382965 102.759819,128.435883 
	C104.329285,128.484741 104.603676,129.637451 104.388596,130.913193 
	C104.147202,132.344955 102.934860,131.982132 102.015800,132.010742 
	C100.351547,132.062576 98.666512,132.175766 97.024406,131.978363 
	C95.721893,131.821793 93.812004,132.974426 93.228836,130.869156 
	C92.638931,128.739578 94.389481,128.637970 95.848259,128.166214 
	C97.331085,127.686684 96.739662,126.198700 96.745964,125.132889 
	C96.790314,117.636780 96.566147,110.131958 96.871399,102.648018 
	C96.993103,99.664169 95.537102,99.040405 93.236206,98.185104 
z"/>
<path fill="#ECECEC" opacity="1.000000" stroke="none" 
	d="
M183.215927,128.963715 
	C186.018585,128.936234 188.636856,128.814728 189.000244,125.828613 
	C189.394379,122.589699 186.444168,122.525810 184.315613,121.836220 
	C182.272781,121.174400 180.145233,120.698296 178.206055,119.810448 
	C175.437164,118.542725 173.663864,116.370705 174.097107,113.122124 
	C174.539642,109.803864 176.622986,107.709373 179.831390,107.057381 
	C182.422623,106.530815 185.093155,106.416222 187.607285,107.723846 
	C188.549362,108.213837 189.497330,109.640869 190.464539,107.310982 
	C190.819000,106.457146 192.965469,106.822853 192.954193,108.857254 
	C192.945908,110.352234 192.963394,111.847351 192.957840,113.342361 
	C192.954102,114.346298 192.993698,115.417473 191.692886,115.688820 
	C190.350327,115.968872 189.575516,115.436760 189.113098,114.068634 
	C187.740326,110.007294 184.743484,109.634605 181.141434,110.734169 
	C179.703613,111.173073 178.853699,112.115082 178.680817,113.547249 
	C178.471024,115.285324 179.446289,116.407791 181.004898,116.919983 
	C183.350616,117.690819 185.751053,118.293365 188.110184,119.025536 
	C191.539886,120.089966 194.306320,121.972252 193.896439,125.990257 
	C193.510483,129.773758 190.869598,131.572845 187.213318,132.219101 
	C184.499374,132.698822 181.926498,132.498047 179.458008,131.366531 
	C178.238998,130.807770 177.468323,129.668823 176.111572,131.645676 
	C175.369308,132.727173 173.238586,132.332672 173.226212,130.010361 
	C173.218246,128.515320 173.206421,127.019981 173.227539,125.525223 
	C173.243881,124.367897 173.133606,123.120651 174.826797,122.981033 
	C176.195023,122.868225 176.752625,123.366875 177.146011,124.799721 
	C177.893051,127.520714 180.276215,128.444077 183.215927,128.963715 
z"/>
<path fill="#F3F3F3" opacity="1.000000" stroke="none" 
	d="
M146.642517,120.003876 
	C140.587540,120.019394 134.997711,120.019394 129.342712,120.019394 
	C130.863556,128.468369 137.121399,131.117096 143.878983,126.546066 
	C144.951477,125.820595 145.755280,123.692909 147.411499,125.709816 
	C148.932663,127.562279 147.026047,128.377365 146.062805,129.274475 
	C141.808701,133.236526 134.129471,133.514069 129.521622,129.971634 
	C124.798012,126.340187 123.234268,118.912727 126.013084,113.306778 
	C128.555756,108.177216 134.502487,105.572113 140.319290,107.039627 
	C145.779266,108.417114 148.961700,114.487556 146.642517,120.003876 
z"/>
<path fill="#E8E8E8" opacity="1.000000" stroke="none" 
	d="
M79.058731,101.075104 
	C79.895340,101.321014 80.668991,101.578598 80.657013,101.792114 
	C80.432594,105.793221 81.768066,107.979362 86.229156,107.020149 
	C87.372696,106.774261 88.032173,107.418266 88.048866,108.714615 
	C88.068245,110.219841 87.325546,111.039413 85.950287,110.751114 
	C80.282112,109.562889 80.796295,113.254646 80.978546,116.815933 
	C81.071983,118.641708 81.035263,120.477249 80.987373,122.306549 
	C80.873001,126.675011 81.890335,129.761505 87.288147,128.028702 
	C88.729401,127.566032 89.557251,128.292603 89.890297,129.523773 
	C90.229591,130.778015 89.072052,131.248535 88.248589,131.696762 
	C83.759064,134.140488 78.160332,131.582367 76.865845,126.580231 
	C75.973175,123.130775 76.569008,119.618782 76.320053,116.146736 
	C76.162796,113.953621 77.602219,110.934425 73.657784,110.381050 
	C73.359238,110.339157 73.201439,109.294052 72.978210,108.715294 
	C77.118912,107.833122 74.869316,102.229195 79.058731,101.075104 
z"/>
<path fill="#ECECEC" opacity="1.000000" stroke="none" 
	d="
M155.173340,125.722107 
	C155.174881,121.423042 155.214935,117.594849 155.148438,113.768494 
	C155.130402,112.730003 155.732819,111.177116 154.060562,110.911537 
	C152.358719,110.641251 151.712875,109.832283 152.014832,108.235641 
	C152.409393,106.149338 154.155365,106.989326 155.234421,107.077171 
	C156.622345,107.190178 158.748840,105.838005 159.255142,108.533005 
	C159.429779,109.462669 158.975098,110.566986 160.194107,111.390480 
	C162.390381,109.200180 164.843460,107.218941 168.180420,107.034180 
	C169.394257,106.966980 170.965210,106.438240 171.026016,108.668930 
	C171.069641,110.268646 170.613358,110.758522 168.886292,111.127251 
	C160.858582,112.841141 157.569687,118.791145 159.898041,126.837410 
	C159.943359,126.994026 159.908554,127.184608 159.982513,127.320496 
	C160.802368,128.826981 165.189682,129.591690 162.383224,131.453293 
	C160.070404,132.987457 155.919952,132.239655 152.716537,131.706314 
	C151.406616,131.488220 151.367645,129.116364 153.275131,128.531952 
	C154.642303,128.113083 155.283676,127.585526 155.173340,125.722107 
z"/>
<path fill="#040404" opacity="1.000000" stroke="none" 
	d="
M50.168259,99.650040 
	C59.397873,100.355469 64.553894,106.196274 63.950756,114.735924 
	C63.364090,123.042313 57.864857,128.403976 50.290905,128.054047 
	C43.771549,127.752831 39.046993,122.647255 38.339985,115.139328 
	C37.585060,107.122597 41.866108,101.322411 50.168259,99.650040 
z"/>
<path fill="#080808" opacity="1.000000" stroke="none" 
	d="
M133.927734,110.829941 
	C136.432983,109.594856 138.521606,110.040215 140.470535,111.073654 
	C142.344681,112.067429 143.728210,113.941612 143.354919,115.882507 
	C142.928436,118.099838 140.598907,116.716133 139.133392,116.949928 
	C137.844254,117.155594 136.476181,117.138092 135.179199,116.958076 
	C133.347076,116.703773 130.528976,118.108025 129.886292,116.080200 
	C129.154404,113.770836 131.212631,111.901344 133.927734,110.829941 
z"/>
</svg>