<?xml version="1.0" standalone="no"?>
<!DOCTYPE svg PUBLIC "-//W3C//DTD SVG 20010904//EN"
 "http://www.w3.org/TR/2001/REC-SVG-20010904/DTD/svg10.dtd">
<svg version="1.0" xmlns="http://www.w3.org/2000/svg"
 width="512.000000pt" height="512.000000pt" viewBox="0 0 512.000000 512.000000"
 preserveAspectRatio="xMidYMid meet">

<g transform="translate(0.000000,512.000000) scale(0.100000,-0.100000)"
fill="#000000" stroke="none">
<path d="M2304 5105 c-171 -37 -337 -170 -409 -327 -55 -121 -70 -268 -40
-397 48 -204 224 -382 430 -436 77 -20 220 -19 299 1 193 50 354 204 422 404
14 42 19 84 19 175 0 104 -4 130 -26 192 -105 288 -399 452 -695 388z"/>
<path d="M2495 3788 c-371 -17 -413 -20 -449 -39 -21 -11 -173 -123 -336 -250
-252 -195 -301 -237 -322 -277 -38 -70 -41 -108 -19 -209 86 -389 215 -923
229 -947 32 -56 86 -89 150 -94 140 -10 229 39 239 132 4 34 -15 145 -77 434
-95 447 -95 422 4 507 31 26 58 46 60 44 2 -2 15 -269 29 -592 l26 -588 -116
-257 c-63 -141 -131 -280 -149 -308 -51 -77 -105 -122 -392 -329 -145 -104
-275 -201 -289 -215 -39 -38 -63 -98 -63 -159 0 -41 9 -75 41 -148 50 -114 74
-151 118 -180 41 -28 107 -30 154 -7 74 38 751 547 815 613 76 79 108 132 302
510 121 236 180 340 190 338 10 -1 110 -264 305 -802 160 -440 300 -817 313
-837 44 -71 150 -128 237 -128 24 0 74 10 111 22 128 42 202 149 192 276 -4
42 -88 285 -316 912 l-311 855 -10 220 c-6 120 -9 220 -8 221 1 1 157 -78 347
-177 311 -161 350 -179 395 -179 34 0 61 7 85 21 44 27 54 40 91 114 50 104
35 184 -48 241 -21 14 -171 102 -333 196 -162 93 -311 185 -331 205 -20 19
-44 51 -53 71 -9 21 -58 181 -110 358 -99 339 -110 369 -153 408 -22 21 -106
49 -131 45 -4 -1 -191 -10 -417 -21z"/>
</g>
</svg>
